<?xml version="1.0" encoding="UTF-8" standalone="no"?>
<svg
   height="32"
   viewBox="0 0 32 32"
   width="32"
   version="1.1"
   id="svg1"
   sodipodi:docname="books.svg"
   inkscape:version="1.4 (e7c3feb100, 2024-10-09)"
   xmlns:inkscape="http://www.inkscape.org/namespaces/inkscape"
   xmlns:sodipodi="http://sodipodi.sourceforge.net/DTD/sodipodi-0.dtd"
   xmlns="http://www.w3.org/2000/svg"
   xmlns:svg="http://www.w3.org/2000/svg">
  <defs
     id="defs1" />
  <sodipodi:namedview
     id="namedview1"
     pagecolor="#ffffff"
     bordercolor="#000000"
     borderopacity="0.25"
     inkscape:showpageshadow="2"
     inkscape:pageopacity="0.0"
     inkscape:pagecheckerboard="0"
     inkscape:deskcolor="#d1d1d1"
     inkscape:zoom="25.8125"
     inkscape:cx="16"
     inkscape:cy="16"
     inkscape:window-width="1920"
     inkscape:window-height="1012"
     inkscape:window-x="0"
     inkscape:window-y="0"
     inkscape:window-maximized="1"
     inkscape:current-layer="svg1" />
  <path
     d="m 20.99647,21.909995 c -0.04571,-0.380436 -0.05204,-1.036131 0.265826,-1.25626 0.006,-0.0039 0.0098,-0.0098 0.01512,-0.01486 0.259848,-0.09227 0.439878,-0.222084 0.298526,-0.396858 l -3.83478,-1.284802 -6.209278,0.959887 c 0,0 -0.710978,0.112997 -0.647686,1.341496 0.03446,0.668598 0.222927,0.997032 0.387838,1.158512 l -0.509499,0.170864 c -0.141352,0.174383 0.03833,0.304192 0.298526,0.396858 0.0049,0.0051 0.0091,0.01095 0.01477,0.01486 0.317865,0.22052 0.311536,0.876214 0.265825,1.25665 -1.141363,0.360496 -0.731723,0.477793 -0.731723,0.477793 l 0.250354,0.06725 c -0.176162,0.177119 -0.35127,0.512591 -0.318217,1.149127 0.06364,1.228499 0.647686,1.312954 0.647686,1.312954 l 4.063334,1.468569 6.132976,-1.651945 c 0,0 0.40999,-0.117688 -0.732075,-0.478184 -0.04606,-0.380045 -0.05239,-1.03574 0.266177,-1.256259 0.006,-0.0039 0.0098,-0.0098 0.01477,-0.01486 0.259848,-0.09227 0.439878,-0.222084 0.298526,-0.396858 l -0.266529,-0.08954 c 0.17792,-0.119253 0.445152,-0.430874 0.486644,-1.240229 0.02883,-0.556383 -0.101619,-0.882862 -0.252816,-1.074449 l 0.526729,-0.14193 c 0,3.91e-4 0.40999,-0.117298 -0.731724,-0.477793 z m -5.129801,-0.01564 5.035918,-1.150692 c -0.165965,0.337427 -0.158933,0.799581 -0.131507,1.096735 0.0063,0.06725 0.01301,0.128637 0.01969,0.175165 l -4.967352,1.373949 z m -4.430427,1.195265 5.035918,1.150692 0.04325,1.495157 -4.967001,-1.373949 c 0.0067,-0.04653 0.01336,-0.107914 0.0197,-0.175165 0.02707,-0.297155 0.03446,-0.759308 -0.131859,-1.096735 z m -0.20183,-1.890059 c -0.0063,-0.32687 0.04606,-0.56303 0.1519,-0.683064 0.06716,-0.07663 0.146978,-0.09267 0.201128,-0.09267 0.02884,0 0.04958,0.0043 0.05099,0.0043 l 4.010238,1.453711 -0.0436,1.505713 -3.942376,-1.22889 c -0.0074,-0.0023 -0.01723,-0.0039 -0.02461,-0.0043 -0.01547,-0.0012 -0.385728,-0.0391 -0.403661,-0.954804 z m 4.028524,6.8803 -3.942025,-1.22889 c -0.0074,-0.0023 -0.01723,-0.0039 -0.02461,-0.0043 -0.01547,-0.0012 -0.38608,-0.0391 -0.404013,-0.954804 -0.0063,-0.32687 0.04641,-0.56303 0.151901,-0.683455 0.06751,-0.07663 0.146978,-0.09267 0.201479,-0.09267 0.02884,0 0.04957,0.0043 0.05099,0.0043 0,0 3.51e-4,0 0,0 l 4.009887,1.454102 -0.0436,1.505322 z m 5.166017,-1.547549 c 0.0063,0.06725 0.01301,0.128636 0.01969,0.175165 l -4.967351,1.374339 0.04325,-1.495156 1.061895,-0.242807 0.156823,0.04223 0.587911,-0.212309 3.229289,-0.737804 c -0.165966,0.337427 -0.159285,0.799581 -0.131506,1.096735 z m 0.273562,-2.031991 c -0.0091,3.91e-4 -0.01828,0.0016 -0.02672,0.0043 l -3.942025,1.228891 -0.0436,-1.505713 4.004613,-1.452147 c 3.52e-4,-3.92e-4 0.149087,-0.03675 0.25809,0.08641 0.105486,0.120034 0.158229,0.356194 0.1519,0.683064 -0.01828,0.915706 -0.388893,0.953632 -0.402254,0.954805 z"
     id="path1"
     style="stroke-width:0.370785" />
</svg>
