<?xml version="1.0" encoding="UTF-8" standalone="no"?>
<svg
   height="10"
   viewBox="0 -960 960 400"
   width="24"
   fill="#e8eaed"
   version="1.1"
   id="svg1"
   sodipodi:docname="code.svg"
   inkscape:version="1.4 (e7c3feb100, 2024-10-09)"
   xmlns:inkscape="http://www.inkscape.org/namespaces/inkscape"
   xmlns:sodipodi="http://sodipodi.sourceforge.net/DTD/sodipodi-0.dtd"
   xmlns="http://www.w3.org/2000/svg"
   xmlns:svg="http://www.w3.org/2000/svg">
  <defs
     id="defs1" />
  <sodipodi:namedview
     id="namedview1"
     pagecolor="#ffffff"
     bordercolor="#000000"
     borderopacity="0.25"
     inkscape:showpageshadow="2"
     inkscape:pageopacity="0.0"
     inkscape:pagecheckerboard="0"
     inkscape:deskcolor="#d1d1d1"
     inkscape:zoom="34.416667"
     inkscape:cx="12"
     inkscape:cy="5.0266343"
     inkscape:window-width="1920"
     inkscape:window-height="1012"
     inkscape:window-x="0"
     inkscape:window-y="0"
     inkscape:window-maximized="1"
     inkscape:current-layer="svg1" />
  <path
     d="m 454.93462,-459.66103 -82.05327,-88.9104 82.05327,-88.91042 19.48765,21.11622 -62.90751,68.16466 62.56562,67.79418 z m 109.40436,0 -19.48765,-21.11622 62.9075,-68.16465 -62.56562,-67.79419 19.14577,-20.74576 82.05327,88.91042 z"
     id="path1"
     style="stroke-width:0.355888" />
  <path
     style="fill:#000000;stroke-width:0.96511"
     d="m 414.08586,-504.52972 c -22.0474,-23.87616 -40.08618,-43.69493 -40.08618,-44.04173 0,-0.99459 80.07637,-87.45286 80.99764,-87.45286 0.87425,0 17.52117,17.92956 18.03797,19.42765 0.16825,0.48358 -13.72217,16.0647 -30.86438,34.62482 l -31.1676,33.74568 5.87768,6.38634 c 3.23272,3.51245 17.12167,18.57266 30.86435,33.46714 13.74266,14.89444 24.98666,27.44218 24.98666,27.88382 0,1.11264 -16.716,19.37027 -17.73468,19.37027 -0.45396,0 -18.86406,-19.53501 -40.91146,-43.41113 z"
     id="path2" />
  <path
     style="fill:#000000;stroke-width:0.96511"
     d="m 555.00535,-470.43002 c -4.65508,-5.1213 -8.59713,-9.68094 -8.76017,-10.13258 -0.16166,-0.45148 13.73671,-16.02032 30.88829,-34.59713 l 31.18468,-33.77605 -5.02306,-5.40509 c -28.72057,-30.9051 -56.75349,-61.69101 -56.75349,-62.32705 0,-1.1103 16.72725,-19.35639 17.74504,-19.35639 0.94255,0 80.98728,86.4351 80.98728,87.45286 0,1.01164 -80.04167,87.45286 -80.97824,87.45286 -0.45461,0 -4.63528,-4.19013 -9.29033,-9.31143 z"
     id="path3" />
</svg>
