<?xml version="1.0" encoding="UTF-8" standalone="no"?>
<svg
   viewBox="0 0 20 20"
   version="1.1"
   id="svg2"
   sodipodi:docname="email-outline.svg"
   inkscape:version="1.4 (e7c3feb100, 2024-10-09)"
   width="20"
   height="20"
   xmlns:inkscape="http://www.inkscape.org/namespaces/inkscape"
   xmlns:sodipodi="http://sodipodi.sourceforge.net/DTD/sodipodi-0.dtd"
   xmlns="http://www.w3.org/2000/svg"
   xmlns:svg="http://www.w3.org/2000/svg">
  <defs
     id="defs2" />
  <sodipodi:namedview
     id="namedview2"
     pagecolor="#ffffff"
     bordercolor="#000000"
     borderopacity="0.25"
     inkscape:showpageshadow="2"
     inkscape:pageopacity="0.0"
     inkscape:pagecheckerboard="0"
     inkscape:deskcolor="#d1d1d1"
     inkscape:zoom="16"
     inkscape:cx="25.375"
     inkscape:cy="13.53125"
     inkscape:window-width="1918"
     inkscape:window-height="1078"
     inkscape:window-x="0"
     inkscape:window-y="0"
     inkscape:window-maximized="1"
     inkscape:current-layer="svg2" />
  <path
     d="M 0,0 H 24 V 24 H 0 Z"
     fill="#ffffff"
     opacity="0"
     id="path1" />
  <path
     d="M 12.989968,11.453198 H 7.3671493 a 1.20489,1.2077697 0 0 0 -1.20489,1.20777 v 4.025899 a 1.20489,1.2077697 0 0 0 1.20489,1.20777 h 5.6228187 a 1.20489,1.2077697 0 0 0 1.20489,-1.20777 v -4.025899 a 1.20489,1.2077697 0 0 0 -1.20489,-1.20777 z m -0.269092,0.80518 -2.542317,1.912302 -2.5423175,-1.912302 z m 0.269092,4.831079 H 7.3671493 a 0.40162999,0.40258988 0 0 1 -0.40163,-0.40259 V 12.761615 L 9.937581,14.99599 a 0.40162999,0.40258988 0 0 0 0.240978,0.08051 0.40162999,0.40258988 0 0 0 0.240977,-0.08051 l 2.972063,-2.234375 v 3.925252 a 0.40162999,0.40258988 0 0 1 -0.401631,0.40259 z"
     fill="#231f20"
     id="path2"
     style="stroke-width:0.402109" />
</svg>
