<?xml version="1.0" encoding="UTF-8" standalone="no"?>
<svg
   viewBox="0 0 72 72"
   version="1.1"
   id="svg19"
   sodipodi:docname="hacker-cat.svg"
   inkscape:version="1.4 (e7c3feb100, 2024-10-09)"
   xmlns:inkscape="http://www.inkscape.org/namespaces/inkscape"
   xmlns:sodipodi="http://sodipodi.sourceforge.net/DTD/sodipodi-0.dtd"
   xmlns="http://www.w3.org/2000/svg"
   xmlns:svg="http://www.w3.org/2000/svg">
  <defs
     id="defs19" />
  <sodipodi:namedview
     id="namedview19"
     pagecolor="#ffffff"
     bordercolor="#000000"
     borderopacity="0.25"
     inkscape:showpageshadow="2"
     inkscape:pageopacity="0.0"
     inkscape:pagecheckerboard="0"
     inkscape:deskcolor="#d1d1d1"
     inkscape:zoom="11.472222"
     inkscape:cx="36"
     inkscape:cy="32.42615"
     inkscape:window-width="1920"
     inkscape:window-height="1012"
     inkscape:window-x="0"
     inkscape:window-y="0"
     inkscape:window-maximized="1"
     inkscape:current-layer="svg19" />
  <g
     fill="none"
     stroke="#000000"
     stroke-linecap="round"
     stroke-linejoin="round"
     id="g11"
     transform="matrix(0.59536386,0,0,0.53114048,12.003867,19.449557)">
    <path
       d="m 36.8723,48.3986 a 6.8472,6.8472 0 0 1 -1.0665,0.0811 h 0.125 c -3.0736,0.0063 -5.8081,-1.4642 -9,-3.5921 -12,0 -10,13 -10,13"
       stroke-width="2"
       id="path1" />
    <path
       d="m 35.467,52.133 h -8.538 l 0.002,-7.245"
       stroke-width="2"
       id="path2" />
    <path
       d="M 22.2649,45.7569 V 57.8666"
       stroke-width="2"
       id="path3" />
    <path
       d="m 35.147,59.772 h 24.99 l 6.95,-16.349 h -24.99 z"
       stroke-width="2"
       id="path4" />
    <path
       d="m 24.1767,59.7725 h 10.97"
       stroke-width="2"
       id="path5" />
    <path
       d="M 38.2936,35.589 35.8502,32.5747"
       stroke-width="1.8"
       id="path6" />
    <path
       d="m 33.4068,35.589 2.4434,-3.0143"
       stroke-width="1.8"
       id="path7" />
    <path
       d="m 33.4068,32.5747 h 4.8868"
       stroke-width="1.8"
       id="path8" />
    <path
       d="m 49.7667,23.869 0.4387,4.1844 a 13.664,13.664 0 0 1 -1.0171,5.189"
       stroke-width="2"
       id="path9" />
    <path
       d="M 22.5121,33.2423 A 13.6635,13.6635 0 0 1 21.495,28.0534 l 2.138,-18.99 6.4492,6.2109 a 14.175,14.175 0 0 1 5.4626,-1.0868 h 0.6108 a 14.1825,14.1825 0 0 1 5.4632,1.0868 l 6.4485,-6.2109 0.6655,6.399"
       stroke-width="2"
       id="path10" />
    <path
       d="m 28.1119,39.7219 a 14.1207,14.1207 0 0 0 7.4329,2.0969 h 0.6108 a 14.1191,14.1191 0 0 0 7.4329,-2.0969"
       stroke-width="1.8"
       id="path11" />
  </g>
  <ellipse
     cx="28.983587"
     cy="34.18977"
     rx="0.72735608"
     ry="0.64039612"
     id="ellipse11"
     style="stroke-width:0.562338" />
  <ellipse
     cx="37.711975"
     cy="34.18977"
     rx="0.72735608"
     ry="0.64039612"
     id="ellipse12"
     style="stroke-width:0.562338" />
  <path
     d="m 40.029014,32.700132 c 0,0 -4.862813,1.809861 -4.634133,2.03958 4.653007,3.726427 5.018084,-1.520497 4.634133,-2.03958 z"
     fill="none"
     stroke="#000000"
     stroke-linecap="round"
     stroke-linejoin="round"
     stroke-width="1.45103"
     id="path12" />
  <path
     d="M 42.320748,39.205168 39.047617,37.604152"
     fill="none"
     stroke="#000000"
     stroke-linecap="round"
     stroke-linejoin="round"
     stroke-width="1.45103"
     id="path13" />
  <path
     d="M 40.985108,40.593676 37.711977,38.992713"
     fill="none"
     stroke="#000000"
     stroke-linecap="round"
     stroke-linejoin="round"
     stroke-width="1.45103"
     id="path14" />
  <path
     d="m 26.666549,32.700132 c 0,0 4.499104,2.129873 4.634133,2.03958 -4.491722,3.921834 -5.087682,-1.188109 -4.634133,-2.03958 z"
     fill="none"
     stroke="#000000"
     stroke-linecap="round"
     stroke-linejoin="round"
     stroke-width="1.45103"
     id="path15" />
  <path
     d="m 24.374813,39.205168 3.273134,-1.601016"
     fill="none"
     stroke="#000000"
     stroke-linecap="round"
     stroke-linejoin="round"
     stroke-width="1.45103"
     id="path16" />
  <path
     d="m 25.710454,40.593676 3.27313,-1.600963"
     fill="none"
     stroke="#000000"
     stroke-linecap="round"
     stroke-linejoin="round"
     stroke-width="1.45103"
     id="path17" />
  <path
     d="M 39.984781,29.16093 25.49005,28.850743 25.200109,31.361976 39.988947,30.564202"
     fill="none"
     stroke="#000000"
     stroke-linecap="round"
     stroke-linejoin="round"
     stroke-width="1.45103"
     id="path18" />
  <path
     d="M 42.068076,29.85991 A 1.1907277,1.0622809 0 1 1 40.87735,28.797631 1.1911445,1.0626527 0 0 1 42.068076,29.85991"
     fill="none"
     stroke="#000000"
     stroke-linecap="round"
     stroke-linejoin="round"
     stroke-width="1.45103"
     id="path19" />
</svg>
