<?xml version="1.0" encoding="UTF-8" standalone="no"?>
<svg
   enable-background="new 0 0 100 100"
   height="100"
   viewBox="0 0 222.22222 222.22222"
   width="100"
   version="1.1"
   id="svg1"
   sodipodi:docname="social-linkedin.svg"
   inkscape:version="1.4 (e7c3feb100, 2024-10-09)"
   xmlns:inkscape="http://www.inkscape.org/namespaces/inkscape"
   xmlns:sodipodi="http://sodipodi.sourceforge.net/DTD/sodipodi-0.dtd"
   xmlns="http://www.w3.org/2000/svg"
   xmlns:svg="http://www.w3.org/2000/svg">
  <defs
     id="defs1" />
  <sodipodi:namedview
     id="namedview1"
     pagecolor="#ffffff"
     bordercolor="#000000"
     borderopacity="0.25"
     inkscape:showpageshadow="2"
     inkscape:pageopacity="0.0"
     inkscape:pagecheckerboard="0"
     inkscape:deskcolor="#d1d1d1"
     inkscape:zoom="4.09"
     inkscape:cx="50"
     inkscape:cy="50"
     inkscape:window-width="957"
     inkscape:window-height="1078"
     inkscape:window-x="961"
     inkscape:window-y="0"
     inkscape:window-maximized="0"
     inkscape:current-layer="svg1" />
  <path
     d="M 144.56269,136.62972 H 83.21068 c -2.934,0 -5.315,2.325 -5.315,5.188 v 61.617 c 0,2.867 2.381,5.195 5.315,5.195 h 61.35201 c 2.936,0 5.333,-2.328 5.333,-5.195 v -61.617 c 0,-2.863 -2.397,-5.188 -5.333,-5.188 z m -45.313012,61.354 H 88.56568 v -34.359 h 10.683998 z m -5.341998,-39.057 c -3.423,0 -6.19,-2.774 -6.19,-6.194 0,-3.415 2.767,-6.189 6.19,-6.189 3.415,0 6.189,2.774 6.189,6.189 0,3.42 -2.774,6.194 -6.189,6.194 z m 45.33801,39.057 h -10.667 v -16.708 c 0,-3.986 -0.078,-9.111 -5.551,-9.111 -5.558,0 -6.405,4.341 -6.405,8.822 v 16.998 h -10.67501 v -34.36 h 10.24501 v 4.692 h 0.146 c 1.426,-2.7 4.91,-5.549 10.106,-5.549 10.806,0 12.802,7.114 12.802,16.369 v 18.847 z"
     id="path1" />
</svg>
