<?xml version="1.0" encoding="UTF-8" standalone="no"?>
<svg
   height="150"
   width="200"
   version="1.1"
   id="svg8"
   sodipodi:docname="triple-os.svg"
   inkscape:version="1.4 (e7c3feb100, 2024-10-09)"
   xml:space="preserve"
   xmlns:inkscape="http://www.inkscape.org/namespaces/inkscape"
   xmlns:sodipodi="http://sodipodi.sourceforge.net/DTD/sodipodi-0.dtd"
   xmlns="http://www.w3.org/2000/svg"
   xmlns:svg="http://www.w3.org/2000/svg"><defs
     id="defs8" /><sodipodi:namedview
     id="namedview8"
     pagecolor="#ffffff"
     bordercolor="#000000"
     borderopacity="0.25"
     inkscape:showpageshadow="2"
     inkscape:pageopacity="0.0"
     inkscape:pagecheckerboard="0"
     inkscape:deskcolor="#d1d1d1"
     inkscape:zoom="3.304"
     inkscape:cx="128.02663"
     inkscape:cy="84.140436"
     inkscape:window-width="1920"
     inkscape:window-height="1012"
     inkscape:window-x="0"
     inkscape:window-y="0"
     inkscape:window-maximized="1"
     inkscape:current-layer="svg8" /><g
     fill-rule="evenodd"
     transform="matrix(0.15505304,0,0,-0.17168507,0.95999655,145.63655)"
     id="g8"><path
       d="m 122.453,169.761 97.758,-169.34 -44.926,-0.422 -26.101,45.496 -26.286,-45.25 -22.32,0.008 -11.433,19.75 37.449,64.394 -26.582,46.258 z"
       fill="#5277c3"
       id="path1" /><path
       d="M 157.738,239.515 59.961,70.183 37.133,108.882 63.484,154.229 11.152,154.366 0,173.702 l 11.391,19.777 74.488,-0.234 26.769,46.152 z"
       fill="#7ebae4"
       id="path2" /><path
       d="M 165.238,104.155 360.77,104.143 338.672,65.026 286.223,65.171 312.27,19.784 301.102,0.456 278.277,0.429 241.238,65.058 187.883,65.167 Z"
       fill="#7ebae4"
       id="path3" /><path
       d="m 279.043,178.35 -97.758,169.34 44.926,0.422 26.101,-45.496 26.286,45.254 22.32,-0.008 11.434,-19.754 -37.45,-64.39 26.582,-46.262 z"
       fill="#7ebae4"
       id="path4" /><g
       fill="#5277c3"
       id="g7"><path
         d="m 122.453,169.761 97.758,-169.34 -44.926,-0.422 -26.101,45.496 -26.286,-45.25 -22.32,0.008 -11.433,19.75 37.449,64.394 -26.582,46.258 z"
         id="path5" /><path
         d="m 236,244.386 -195.535,0.011 22.101,39.118 52.45,-0.149 -26.047,45.391 11.168,19.328 22.82,0.023 37.043,-64.625 53.352,-0.109 z"
         id="path6" /><path
         d="m 243.625,108.636 97.777,169.328 22.825,-38.696 -26.348,-45.351 52.332,-0.137 11.152,-19.336 -11.39,-19.777 -74.489,0.238 -26.769,-46.152 z"
         id="path7" /></g></g><path
     d="m 150.524,118.82588 h 23.56642 v 22.74371 H 150.524 Z m -25.63152,0 h 23.56643 v 22.74371 H 124.89248 Z M 150.524,94.089155 h 23.56642 V 116.83288 H 150.524 Z m -25.63152,0 h 23.56643 v 22.743725 h -23.56643 z"
     id="path1-3"
     style="stroke-width:4.02765" /><path
     d="m 82.980128,107.36454 c 1.86875,1.59181 4.88433,3.25124 7.50171,4.2865 -2.25148,-1.64936 -4.49193,-3.50846 -6.72835,-5.94181 1.86158,-4.0072 4.08426,-9.542051 6.37591,-15.191766 3.73611,9.636806 10.699802,24.139556 20.028612,41.346586 -2.5343,-1.40477 -4.83065,-2.20468 -7.20151,-2.82264 0.78573,0.45274 2.64306,1.47585 3.83475,2.29826 1.88258,1.29921 3.62471,2.71994 5.26311,4.08032 1.46231,2.7145 2.94267,5.48484 4.43888,8.30438 -7.44113,-4.34938 -14.67223,-7.87265 -20.596542,-8.96085 1.93953,-10.86078 -5.65172,-17.26849 -9.96456,-10.35537 -1.66067,2.66161 -2.10982,7.04699 -1.32235,10.30581 -7.49021,1.45602 -14.81885,5.53171 -20.843612,9.01041 7.017542,-12.83655 14.112562,-25.84941 19.213952,-36.35983 z"
     id="path1-6"
     style="stroke-width:0.103471" /></svg>
