<?xml version="1.0" encoding="UTF-8" standalone="no"?>
<svg
   height="150"
   width="200"
   version="1.1"
   id="svg8"
   sodipodi:docname="triple-os.svg"
   inkscape:version="1.4 (e7c3feb100, 2024-10-09)"
   xml:space="preserve"
   xmlns:inkscape="http://www.inkscape.org/namespaces/inkscape"
   xmlns:sodipodi="http://sodipodi.sourceforge.net/DTD/sodipodi-0.dtd"
   xmlns="http://www.w3.org/2000/svg"
   xmlns:svg="http://www.w3.org/2000/svg"><defs
     id="defs8" /><sodipodi:namedview
     id="namedview8"
     pagecolor="#ffffff"
     bordercolor="#000000"
     borderopacity="0.25"
     inkscape:showpageshadow="2"
     inkscape:pageopacity="0.0"
     inkscape:pagecheckerboard="0"
     inkscape:deskcolor="#d1d1d1"
     inkscape:zoom="3.304"
     inkscape:cx="128.02663"
     inkscape:cy="84.140436"
     inkscape:window-width="1920"
     inkscape:window-height="1012"
     inkscape:window-x="0"
     inkscape:window-y="0"
     inkscape:window-maximized="1"
     inkscape:current-layer="svg8" /><g
     fill-rule="evenodd"
     transform="matrix(0.16711846,0,0,-0.17168507,8.8292458,168.3363)"
     id="g8"><path
       d="m 122.453,169.761 97.758,-169.34 -44.926,-0.422 -26.101,45.496 -26.286,-45.25 -22.32,0.008 -11.433,19.75 37.449,64.394 -26.582,46.258 z"
       fill="#5277c3"
       id="path1" /><path
       d="M 157.738,239.515 59.961,70.183 37.133,108.882 63.484,154.229 11.152,154.366 0,173.702 l 11.391,19.777 74.488,-0.234 26.769,46.152 z"
       fill="#7ebae4"
       id="path2" /><path
       d="M 165.238,104.155 360.77,104.143 338.672,65.026 286.223,65.171 312.27,19.784 301.102,0.456 278.277,0.429 241.238,65.058 187.883,65.167 Z"
       fill="#7ebae4"
       id="path3" /><path
       d="m 279.043,178.35 -97.758,169.34 44.926,0.422 26.101,-45.496 26.286,45.254 22.32,-0.008 11.434,-19.754 -37.45,-64.39 26.582,-46.262 z"
       fill="#7ebae4"
       id="path4" /><g
       fill="#5277c3"
       id="g7"><path
         d="m 122.453,169.761 97.758,-169.34 -44.926,-0.422 -26.101,45.496 -26.286,-45.25 -22.32,0.008 -11.433,19.75 37.449,64.394 -26.582,46.258 z"
         id="path5" /><path
         d="m 236,244.386 -195.535,0.011 22.101,39.118 52.45,-0.149 -26.047,45.391 11.168,19.328 22.82,0.023 37.043,-64.625 53.352,-0.109 z"
         id="path6" /><path
         d="m 243.625,108.636 97.777,169.328 22.825,-38.696 -26.348,-45.351 52.332,-0.137 11.152,-19.336 -11.39,-19.777 -74.489,0.238 -26.769,-46.152 z"
         id="path7" /></g></g><path
     d="m 164.09304,141.52563 h 22.40658 v 22.74371 h -22.40658 z m -24.37005,0 h 22.40659 v 22.74371 h -22.40659 z m 24.37005,-24.73672 h 22.40658 v 22.74372 h -22.40658 z m -24.37005,0 h 22.40659 v 22.74372 h -22.40659 z"
     id="path1-3"
     style="stroke-width:3.92729" /><path
     d="m 97.456661,130.06429 c 2.040382,1.59181 5.332929,3.25124 8.190689,4.2865 -2.45826,-1.64936 -4.90448,-3.50846 -7.346301,-5.94181 2.032551,-4.0072 4.459371,-9.54205 6.961491,-15.19176 4.07924,9.6368 11.68251,24.13955 21.86811,41.34658 -2.76706,-1.40477 -5.27431,-2.20468 -7.86292,-2.82264 0.85789,0.45274 2.88581,1.47585 4.18694,2.29826 2.05549,1.29921 3.95762,2.71994 5.74649,4.08032 1.59662,2.7145 3.21294,5.48484 4.84657,8.30438 -8.12455,-4.34938 -16.01978,-7.87265 -22.48821,-8.96085 2.11767,-10.86078 -6.17078,-17.26849 -10.87972,-10.35537 -1.813198,2.66161 -2.3036,7.04699 -1.443806,10.30581 -8.178134,1.45602 -16.179858,5.53171 -22.757953,9.01041 7.662055,-12.83655 15.408703,-25.84941 20.97862,-36.35983 z"
     id="path1-6"
     style="stroke-width:0.108118" /></svg>
