<?xml version="1.0" encoding="UTF-8" standalone="no"?>
<svg
   height="24"
   viewBox="0 0 53.333333 53.333333"
   width="24"
   version="1.1"
   id="svg1"
   sodipodi:docname="whatsapp.svg"
   inkscape:version="1.4 (e7c3feb100, 2024-10-09)"
   xmlns:inkscape="http://www.inkscape.org/namespaces/inkscape"
   xmlns:sodipodi="http://sodipodi.sourceforge.net/DTD/sodipodi-0.dtd"
   xmlns="http://www.w3.org/2000/svg"
   xmlns:svg="http://www.w3.org/2000/svg">
  <defs
     id="defs1" />
  <sodipodi:namedview
     id="namedview1"
     pagecolor="#ffffff"
     bordercolor="#000000"
     borderopacity="0.25"
     inkscape:showpageshadow="2"
     inkscape:pageopacity="0.0"
     inkscape:pagecheckerboard="false"
     inkscape:deskcolor="#d1d1d1"
     inkscape:zoom="17.041667"
     inkscape:cx="13.99511"
     inkscape:cy="3.4914425"
     inkscape:window-width="957"
     inkscape:window-height="1078"
     inkscape:window-x="961"
     inkscape:window-y="0"
     inkscape:window-maximized="0"
     inkscape:current-layer="svg1"
     labelstyle="default" />
  <path
     clip-rule="evenodd"
     d="m 33.516284,34.255658 c -1.695,-1.697 -3.949,-2.632 -6.35,-2.633 -4.948,0 -8.976,4.027 -8.978,8.977 0,1.582 0.413,3.126 1.198,4.488 l -1.273,4.651 4.759,-1.249 c 1.312,0.715 2.788,1.092 4.29,1.093 h 0.004 c 4.947,0 8.975,-4.027 8.977,-8.977 0,-2.398 -0.932,-4.653 -2.627,-6.35 m -6.35,13.812 h -0.003 c -1.339,-0.001 -2.652,-0.36 -3.798,-1.041 l -0.272,-0.162 -2.824,0.741 0.753,-2.753 -0.177,-0.282 c -0.747,-1.188 -1.141,-2.561 -1.141,-3.971 0.002,-4.114 3.349,-7.461 7.465,-7.461 1.993,10e-4 3.866,0.778 5.275,2.188 1.408,1.411 2.184,3.285 2.183,5.279 -0.002,4.114 -3.349,7.462 -7.461,7.462 m 4.093,-5.589 c -0.225,-0.113 -1.327,-0.655 -1.533,-0.73 -0.205,-0.075 -0.354,-0.112 -0.504,0.112 -0.15,0.224 -0.58,0.729 -0.711,0.879 -0.131,0.15 -0.262,0.168 -0.486,0.056 -0.224,-0.112 -0.947,-0.349 -1.804,-1.113 -0.667,-0.595 -1.117,-1.329 -1.248,-1.554 -0.131,-0.225 -0.014,-0.346 0.099,-0.458 0.101,-0.1 0.224,-0.262 0.336,-0.393 0.112,-0.131 0.149,-0.224 0.224,-0.374 0.075,-0.15 0.038,-0.281 -0.019,-0.393 -0.056,-0.113 -0.505,-1.217 -0.692,-1.666 -0.181,-0.435 -0.366,-0.377 -0.504,-0.383 -0.13,-0.006 -0.28,-0.008 -0.429,-0.008 -0.15,0 -0.393,0.056 -0.599,0.28 -0.206,0.225 -0.785,0.767 -0.785,1.871 0,1.104 0.804,2.171 0.916,2.321 0.112,0.15 1.582,2.415 3.832,3.387 0.536,0.231 0.954,0.369 1.279,0.473 0.537,0.171 1.026,0.146 1.413,0.089 0.431,-0.064 1.327,-0.542 1.514,-1.066 0.187,-0.524 0.187,-0.973 0.131,-1.067 -0.056,-0.094 -0.207,-0.151 -0.43,-0.263"
     fill-rule="evenodd"
     id="path1" />
</svg>
